HIERARCHY
ROOT root
{
	OFFSET 0.000000 0.000000 0.000000
	CHANNELS 6 Xposition Yposition Zposition Zrotation Yrotation Xrotation
	JOINT lhip
	{
		OFFSET 0.058581 -0.082280 -0.017664
		CHANNELS 3 Zrotation Yrotation Xrotation
		JOINT lknee
		{
			OFFSET 0.043451 -0.386469 0.008037
			CHANNELS 3 Zrotation Yrotation Xrotation
			JOINT lankle
			{
				OFFSET -0.014790 -0.426874 -0.037428
				CHANNELS 3 Zrotation Yrotation Xrotation
				JOINT ltoe
				{
					OFFSET 0.041054 -0.060286 0.122042
					CHANNELS 3 Zrotation Yrotation Xrotation
					End Site
					{
						OFFSET 0.000000 0.000000 0.000000
					}
				}
			}
		}
	}
	JOINT rhip
	{
		OFFSET -0.060310 -0.090513 -0.013543
		CHANNELS 3 Zrotation Yrotation Xrotation
		JOINT rknee
		{
			OFFSET -0.043257 -0.383688 -0.004843
			CHANNELS 3 Zrotation Yrotation Xrotation
			JOINT rankle
			{
				OFFSET 0.019056 -0.420046 -0.034562
				CHANNELS 3 Zrotation Yrotation Xrotation
				JOINT rtoe
				{
					OFFSET -0.034840 -0.062106 0.130323
					CHANNELS 3 Zrotation Yrotation Xrotation
					End Site
					{
						OFFSET 0.000000 0.000000 0.000000
					}
				}
			}
		}
	}
	JOINT lowerback
	{
		OFFSET 0.004439 0.124404 -0.038385
		CHANNELS 3 Zrotation Yrotation Xrotation
		JOINT upperback
		{
			OFFSET 0.004488 0.137956 0.026820
			CHANNELS 3 Zrotation Yrotation Xrotation
			JOINT chest
			{
				OFFSET -0.002265 0.056032 0.002855
				CHANNELS 3 Zrotation Yrotation Xrotation
				JOINT lowerneck
				{
					OFFSET -0.013390 0.211636 -0.033468
					CHANNELS 3 Zrotation Yrotation Xrotation
					JOINT upperneck
					{
						OFFSET 0.010113 0.088937 0.050410
						CHANNELS 3 Zrotation Yrotation Xrotation
						End Site
						{
							OFFSET 0.000000 0.000000 0.000000
						}
					}
				}
				JOINT lclavicle
				{
					OFFSET 0.071702 0.114000 -0.018898
					CHANNELS 3 Zrotation Yrotation Xrotation
					JOINT lshoulder
					{
						OFFSET 0.122921 0.045205 -0.019046
						CHANNELS 3 Zrotation Yrotation Xrotation
						JOINT lelbow
						{
							OFFSET 0.255332 -0.015649 -0.022946
							CHANNELS 3 Zrotation Yrotation Xrotation
							JOINT lwrist
							{
								OFFSET 0.265709 0.012698 -0.007375
								CHANNELS 3 Zrotation Yrotation Xrotation
								End Site
								{
									OFFSET 0.000000 0.000000 0.000000
								}
							}
						}
					}
				}
				JOINT rclavicle
				{
					OFFSET -0.082954 0.112472 -0.023707
					CHANNELS 3 Zrotation Yrotation Xrotation
					JOINT rshoulder
					{
						OFFSET -0.113228 0.046853 -0.008472
						CHANNELS 3 Zrotation Yrotation Xrotation
						JOINT relbow
						{
							OFFSET -0.260127 -0.014369 -0.031269
							CHANNELS 3 Zrotation Yrotation Xrotation
							JOINT rwrist
							{
								OFFSET -0.269108 0.006794 -0.006027
								CHANNELS 3 Zrotation Yrotation Xrotation
								End Site
								{
									OFFSET 0.000000 0.000000 0.000000
								}
							}
						}
					}
				}
			}
		}
	}
}
MOTION
Frames: 17
Frame Time: 0.033333
-2.585625 0.205887 0.966823 92.069838 3.392127 83.934516 3.225229 -1.164135 1.994254 -7.609886 -2.593284 60.701630 0.517697 10.811419 -5.335365 0.000000 -0.000000 0.000000 4.002333 2.971241 -16.076230 3.897375 -4.579619 27.867826 -1.819271 -4.499776 -16.857040 0.000000 -0.000000 0.000000 3.810992 -3.219370 9.063334 5.998121 -0.557749 2.444460 0.691551 -1.479471 0.975065 0.485065 2.636974 -8.263360 -4.034310 0.787348 2.836865 -31.350444 6.180685 0.439474 -59.413467 -8.276374 10.322885 18.205728 -46.269802 3.708828 0.163332 -6.942587 -8.827697 32.564983 -6.469073 3.060939 52.671845 -5.232068 7.767730 -25.024730 23.223342 -4.707937 7.513369 0.750517 -0.646162 
-2.539828 0.204845 0.978790 90.778255 2.616605 83.362740 2.726069 -1.910666 -3.816349 -6.422931 0.858540 60.968381 1.021774 11.543962 -7.185033 0.000000 -0.000000 0.000000 4.658488 2.176020 -10.231526 3.432788 -1.733152 24.658695 -2.361591 -4.678707 -18.647791 0.000000 -0.000000 0.000000 2.978344 -0.973586 9.081355 5.985762 -0.845906 2.792241 0.676053 -0.879978 1.359603 0.932183 2.788141 -8.270752 -4.714906 0.002488 4.000125 -30.978306 6.112678 0.746593 -60.381441 -5.355544 10.610353 15.636965 -41.926737 7.780726 -2.142774 -6.482525 -9.312385 32.184624 -4.226195 2.617921 53.121851 -0.989779 9.157788 -24.684489 25.071287 -3.360385 7.140332 1.652686 -1.284594 
-2.494025 0.204834 0.989043 88.623879 1.155399 82.881058 2.428479 -2.042402 -8.403650 -5.893659 4.750774 57.169527 1.954595 11.512380 -10.267517 0.000000 -0.000000 0.000000 3.787887 1.312440 -4.322200 3.119434 0.771342 21.050396 -1.852308 -3.016058 -19.918020 0.000000 -0.000000 0.000000 2.081869 1.575319 10.752051 5.071902 -0.593848 0.834034 0.543559 -0.327579 1.250761 1.608501 3.397872 -7.538645 -5.126747 -0.488184 5.526660 -30.268120 7.092882 0.800200 -61.094912 -1.388398 10.254652 13.507049 -38.013935 11.443854 -4.153313 -6.950562 -8.534100 31.427677 -3.139763 1.934250 54.217698 2.739859 10.426517 -24.210417 27.763289 -1.901043 6.563052 2.284784 -0.857946 
-2.437180 0.205233 0.994001 86.025790 -0.425979 82.872796 2.832563 -2.047009 -13.113697 -5.178620 9.156291 48.007193 1.655393 11.453296 -13.377078 0.000000 -0.000000 0.000000 1.415841 -0.200663 2.404245 3.719461 3.011899 16.277951 -1.447567 -0.586709 -20.892257 0.000000 -0.000000 0.000000 1.341263 4.898895 10.354590 4.086940 -0.514906 1.364753 0.399685 -0.077050 1.045315 2.005132 3.904480 -6.708474 -5.554457 -1.270604 5.701571 -30.000514 7.013163 1.670150 -61.364529 3.411261 9.841486 12.998631 -34.268403 14.643369 -9.551717 -7.402789 -6.957565 30.263405 -1.060427 1.862149 54.611520 8.348466 11.099952 -23.749042 32.118783 -1.540640 8.441770 4.076614 -2.508143 
-2.402581 0.204759 0.993232 85.646607 -0.437535 82.934286 3.856573 -2.205371 -15.436983 -4.706026 10.486728 41.116587 0.959955 11.416283 -14.623577 0.000000 -0.000000 0.000000 0.751672 -1.489707 6.552641 4.117857 4.331391 13.121835 -1.386509 0.082502 -21.232758 0.000000 -0.000000 0.000000 1.590784 5.821516 9.403304 3.752531 -0.920767 2.409406 0.158960 0.310389 0.843470 2.326803 3.928482 -6.107493 -5.772168 -1.666173 5.602463 -30.291979 6.994407 2.333402 -60.914897 6.205345 9.423282 12.883043 -33.158403 16.115612 -11.722912 -6.559630 -4.901407 29.725866 0.484014 2.040636 54.065536 11.341625 11.231938 -23.283370 35.127811 -2.419586 7.894926 4.653446 -3.536291 
-2.356728 0.204732 0.987992 84.067423 -0.406316 83.033122 5.077768 -1.267281 -17.142558 -3.768015 12.147932 29.742519 0.783732 12.245156 -13.894657 0.000000 -0.000000 0.000000 -0.847543 -3.060095 11.354967 5.104803 6.298453 10.503111 -1.122983 1.787853 -22.465165 0.000000 -0.000000 0.000000 2.099452 6.982826 9.397105 2.989360 -0.678775 2.405464 -0.035453 0.945193 0.878907 2.865120 4.629116 -6.393582 -6.379037 -2.059291 6.293683 -30.542672 8.525387 2.374275 -59.980399 9.801129 8.796110 11.548335 -32.388720 18.254982 -13.022139 -6.029940 -2.583907 29.434335 1.641922 1.854500 52.273965 15.192394 11.259969 -21.681776 39.624309 -2.689978 6.069537 6.869827 -4.340831 
-2.311034 0.204977 0.979047 82.896393 0.120304 82.822460 6.185979 0.659733 -18.119969 -3.657225 11.713178 18.214553 -0.434093 11.763513 -13.134812 0.000000 -0.000000 0.000000 -2.566056 -4.606075 16.591995 6.545884 7.556406 7.807841 -0.593275 3.455282 -23.133678 0.000000 -0.000000 0.000000 2.757404 7.596353 10.046793 2.540856 -0.263647 2.495607 -0.046535 1.539848 0.972629 3.489359 5.304630 -7.768436 -7.232989 -2.838064 6.595757 -31.001335 11.001348 1.116079 -58.734613 12.908414 7.963191 9.864351 -32.257780 20.698245 -14.523674 -4.928667 -0.960704 28.796245 2.323601 0.147559 51.223282 19.615426 11.334635 -20.494848 42.214314 -3.208760 5.576442 5.964629 -4.802934 
-2.264347 0.205772 0.967451 81.341997 0.463415 82.883345 6.951710 3.694736 -18.550711 -4.511400 10.046870 7.082445 -1.524108 9.794191 -12.958443 0.000000 -0.000000 0.000000 -4.552186 -5.916452 20.103993 7.447161 9.158702 8.033588 -0.334970 5.380207 -24.562686 0.000000 -0.000000 0.000000 2.907048 8.101063 9.072170 2.306607 0.158732 4.006624 0.066711 2.591416 0.570933 3.903039 5.697138 -7.495607 -7.875586 -3.468391 6.788599 -31.295713 12.202662 0.877649 -58.434100 15.770549 7.301667 9.841885 -31.541925 20.083301 -13.182657 -4.910659 -0.743231 28.732477 3.936681 0.265842 48.481192 23.317160 10.286678 -20.149756 44.697107 -4.720418 3.692211 7.193151 -4.428644 
-2.216147 0.207229 0.955391 79.642745 0.651715 83.506632 7.726126 6.739204 -19.167678 -6.418432 6.901783 -1.568105 -2.513127 7.383648 -12.036351 0.000000 -0.000000 0.000000 -6.456289 -6.597149 22.217360 7.716070 11.153871 9.500023 0.002418 7.069545 -25.706727 0.000000 -0.000000 0.000000 2.784786 8.357629 7.587398 2.175024 0.797116 5.506795 -0.111917 3.777345 0.280589 4.074942 6.085729 -7.395658 -8.393458 -3.946711 6.103113 -31.728205 13.914685 0.022626 -57.686668 18.244848 6.433018 9.891803 -31.251815 19.776162 -12.169466 -4.027196 -0.424171 28.652537 4.767130 -0.116602 46.647635 26.408310 9.458611 -20.501122 46.813410 -5.689364 2.673065 6.863486 -3.923278 
-2.153505 0.209502 0.943726 78.493265 0.605035 84.406526 8.688098 5.476198 -20.527189 -7.206865 6.422662 -3.890166 -3.499127 6.402223 -11.822018 0.000000 -0.000000 0.000000 -7.915269 -5.397208 24.488005 7.571383 13.153899 11.601064 1.722982 7.752861 -24.172751 0.000000 -0.000000 0.000000 2.263236 9.304571 7.187182 2.111452 1.442601 4.903683 -0.449296 4.233436 0.138289 4.516096 5.869411 -8.032008 -8.714240 -4.685478 6.180242 -31.748661 16.133358 -0.650559 -56.631925 20.078701 5.466214 10.240037 -30.235115 18.848157 -12.356534 -4.583986 -0.115177 28.693117 4.280564 -1.166721 45.827668 27.745070 10.024870 -21.566754 49.351570 -6.662832 1.855513 7.143441 -3.185215 
-2.098718 0.211805 0.937974 78.432108 0.088270 85.049152 8.280635 2.483332 -22.115817 -6.551135 7.224534 2.443179 -2.545263 7.151881 -13.648225 0.000000 -0.000000 0.000000 -8.499852 -4.179964 25.373788 6.755348 14.422848 15.033404 3.046699 7.394436 -21.210790 0.000000 -0.000000 0.000000 1.214561 10.577988 6.322652 2.057229 1.560468 4.381588 -0.549385 3.968183 0.157254 4.597869 5.344846 -7.712051 -8.294957 -4.492759 6.086141 -31.576603 16.277433 -0.050464 -56.444967 20.994436 5.349502 11.340128 -29.101433 17.312554 -10.718688 -4.711900 -0.853729 29.062565 3.756257 -0.938827 45.789091 26.801207 10.526454 -24.921742 51.260936 -9.624162 0.638360 7.398268 -3.710355 
-2.042355 0.215043 0.934950 79.405122 -0.464283 86.347931 7.200157 -0.452430 -24.465683 -5.605851 9.384922 9.574916 -1.636360 7.143300 -8.100942 0.000000 -0.000000 0.000000 -7.823439 -2.607752 24.349557 6.140917 14.396598 20.050368 3.815773 6.670152 -15.308704 0.000000 -0.000000 0.000000 -0.395359 10.967855 4.484241 2.358366 1.285212 4.619480 -0.855239 3.950864 -0.080797 4.433278 4.298718 -8.309246 -7.421854 -4.023469 5.788938 -31.511139 16.284633 0.360753 -56.248360 20.970414 5.326617 12.536475 -28.189236 15.743554 -10.628255 -4.391040 -1.198670 29.836528 2.656905 -0.698474 45.637747 24.853368 11.462195 -28.072127 52.839164 -12.463696 1.007845 7.645157 -4.822672 
-1.985611 0.220713 0.937072 82.187355 -1.636923 87.442995 5.218913 -3.794148 -26.423087 -6.220652 6.043540 16.094242 0.249795 8.384607 -5.984397 0.000000 -0.000000 0.000000 -7.110190 -2.077210 21.122657 5.620800 11.466258 28.817358 6.138832 4.359937 -2.953948 0.000000 -0.000000 0.000000 -2.449199 10.743297 3.771903 2.320537 0.703490 3.268082 -1.043572 3.070253 0.181332 4.421436 2.906695 -9.045731 -6.055942 -3.379847 5.731963 -31.564071 16.437898 0.690752 -55.847210 19.995431 5.186548 14.094670 -27.717887 13.506329 -10.181547 -5.543538 -2.061236 30.592642 0.746819 -1.168129 47.189742 21.224018 13.045854 -30.715442 53.581566 -14.563012 2.180061 8.527078 -5.450335 
-1.929071 0.224582 0.941637 83.530977 -3.294622 86.513529 3.033083 -7.662824 -24.865866 -6.508148 7.487074 21.582510 5.009372 10.095176 -9.779117 0.000000 -0.000000 0.000000 -7.347247 -0.774585 17.656094 5.054779 8.381277 39.624534 8.659230 0.768020 9.568135 0.000000 -0.000000 0.000000 -4.539789 10.765386 4.378523 2.084159 0.701533 3.416653 -1.108236 2.489977 0.637342 4.242129 1.333668 -9.664376 -4.841655 -1.989928 4.521499 -31.391985 15.269751 1.813387 -56.638166 17.950765 5.457036 15.516636 -27.694192 11.799787 -9.425360 -6.051461 -4.335606 30.816366 -0.100443 -0.647476 48.936509 17.418932 14.794410 -33.218101 52.528562 -17.063003 2.248537 10.407891 -5.969842 
-1.878022 0.230136 0.946279 84.171017 -4.851740 86.553469 -0.446269 -8.745458 -22.530744 -6.142675 6.866956 23.524193 7.148511 12.088435 -12.828765 0.000000 -0.000000 0.000000 -8.305506 0.499197 11.004090 4.303714 4.787365 51.751994 9.168143 -4.877514 14.993678 0.000000 -0.000000 0.000000 -6.094798 9.591833 4.507585 1.507112 1.100405 3.795147 -1.118790 2.228792 0.739548 3.789578 0.345661 -10.242447 -4.048095 -0.618386 4.417803 -30.774145 13.236915 2.522461 -59.469787 15.256520 0.913653 17.529931 -27.981634 8.446675 -13.011313 -4.517584 -2.196972 30.920004 -0.088504 -0.111408 51.190667 13.790459 13.285341 -32.779968 51.975230 -18.475022 7.495642 8.227763 -2.497192 
-1.825840 0.231721 0.953780 85.391634 -4.343892 85.798855 -2.578469 -7.811089 -17.543018 -5.624665 3.502196 23.031739 8.831924 13.068123 -16.237853 0.000000 -0.000000 0.000000 -6.893143 -0.232239 5.643747 3.381022 2.686435 60.214147 5.206320 -8.524290 7.178870 0.000000 -0.000000 0.000000 -5.360905 7.077717 6.206460 1.078952 0.969962 2.634276 -1.273212 1.722130 1.128222 3.363693 0.668517 -10.267463 -3.427159 0.948244 4.089374 -31.492410 12.430102 2.506231 -60.011122 12.987856 0.845570 19.159005 -29.064767 5.907061 -12.502376 -4.860237 -5.934424 31.721514 -0.907616 0.101686 53.128826 10.562554 13.537175 -29.687869 49.404595 -14.936745 9.647731 7.715120 -1.387781 
-1.776059 0.232575 0.964578 86.159605 -3.591694 84.534200 -3.585440 -6.505712 -10.968447 -5.250420 0.810529 20.361276 8.363181 14.016875 -18.259780 0.000000 -0.000000 0.000000 -5.286203 -0.007059 0.490147 2.315464 0.389901 64.840201 3.580246 -9.057138 0.517516 0.000000 -0.000000 0.000000 -4.325046 5.086056 7.769057 0.957221 0.885610 2.665851 -1.289291 1.077988 1.037907 3.068678 1.377067 -9.004998 -3.247188 1.675284 3.256826 -32.079802 10.692038 2.545482 -60.839848 9.395892 1.534185 20.761433 -28.698502 3.605276 -10.563146 -4.389339 -8.139778 32.040424 -1.423618 0.330993 54.864548 7.139026 13.158840 -26.358190 44.957529 -10.186929 9.568177 8.259811 -1.503348 
